<?xml version="1.0" standalone="no"?>
<!DOCTYPE svg PUBLIC "-//W3C//DTD SVG 20010904//EN"
 "http://www.w3.org/TR/2001/REC-SVG-20010904/DTD/svg10.dtd">
<svg version="1.0" xmlns="http://www.w3.org/2000/svg"
 width="30.000000pt" height="30.000000pt" viewBox="0 0 30.000000 30.000000"
 preserveAspectRatio="xMidYMid meet">

<g transform="translate(0.000000,30.000000) scale(0.100000,-0.100000)"
fill="#000000" stroke="none">
<path d="M110 265 c0 -8 5 -15 10 -15 6 0 10 7 10 15 0 8 -4 15 -10 15 -5 0
-10 -7 -10 -15z"/>
<path d="M145 148 l-130 -133 133 130 c123 120 137 135 129 135 -1 0 -61 -60
-132 -132z"/>
<path d="M40 256 c0 -2 8 -10 18 -17 15 -13 16 -12 3 4 -13 16 -21 21 -21 13z"/>
<path d="M179 243 c-13 -16 -12 -17 4 -4 9 7 17 15 17 17 0 8 -8 3 -21 -13z"/>
<path d="M81 216 c-15 -18 -11 -68 7 -74 11 -3 11 0 1 16 -24 38 15 77 53 53
16 -10 19 -10 16 1 -6 19 -62 22 -77 4z"/>
<path d="M255 191 c-7 -12 12 -24 25 -16 11 7 4 25 -10 25 -5 0 -11 -4 -15 -9z"/>
<path d="M20 180 c0 -5 7 -10 15 -10 8 0 15 5 15 10 0 6 -7 10 -15 10 -8 0
-15 -4 -15 -10z"/>
<path d="M180 128 c-25 -27 -25 -49 -2 -78 24 -30 70 -30 94 0 25 31 23 38
-14 36 -31 -1 -33 1 -32 32 2 38 -16 42 -46 10z m25 -8 c-11 -18 15 -50 42
-50 22 0 24 -2 13 -16 -17 -20 -59 -14 -75 11 -14 22 -4 65 15 65 6 0 8 -4 5
-10z"/>
<path d="M49 113 c-13 -16 -12 -17 4 -4 16 13 21 21 13 21 -2 0 -10 -8 -17
-17z"/>
<path d="M125 40 c-4 -6 -3 -16 3 -22 6 -6 12 -6 17 2 4 6 3 16 -3 22 -6 6
-12 6 -17 -2z"/>
</g>
</svg>
