<?xml version="1.0" encoding="UTF-8"?>
<svg version="1.1" xmlns="http://www.w3.org/2000/svg" width="35" height="35">
<path d="M0 0 C8.25 0 16.5 0 25 0 C25.33 3.63 25.66 7.26 26 11 C28.47859029 13.8979062 28.47859029 13.8979062 31 16 C31.0625 18.0625 31.0625 18.0625 30 20 C29.01 20.7734375 29.01 20.7734375 28 21.5625 C24.8798672 24.89980394 24.8798672 24.89980394 25 35 C16.75 35 8.5 35 0 35 C0 23.45 0 11.9 0 0 Z " fill="#A1E3F3" transform="translate(4,0)"/>
<path d="M0 0 C3.39192363 0.59283621 5.2107757 1.76743189 7.75 4.0625 C8.67039062 4.88427734 8.67039062 4.88427734 9.609375 5.72265625 C10.06828125 6.14417969 10.5271875 6.56570312 11 7 C10.43601004 10.50588356 9.33036227 11.98982392 6.625 14.25 C6.01914062 14.77078125 5.41328125 15.2915625 4.7890625 15.828125 C3 17 3 17 0 17 C0 15.02 0 13.04 0 11 C-3.63 11 -7.26 11 -11 11 C-11 9.35 -11 7.7 -11 6 C-7.37 6 -3.74 6 0 6 C0 4.02 0 2.04 0 0 Z " fill="#2B87EF" transform="translate(24,9)"/>
</svg>
