<?xml version="1.0" encoding="UTF-8"?>
<svg version="1.1" xmlns="http://www.w3.org/2000/svg" width="50" height="50">
<path d="M0 0 C0 0.99 0 1.98 0 3 C-0.9075 3.350625 -1.815 3.70125 -2.75 4.0625 C-6.6466079 6.38547779 -8.59922254 8.75018365 -10 13 C-10.80516949 18.79902968 -10.60443917 23.19408111 -7 28 C-7 28.66 -7 29.32 -7 30 C-1.26718444 32.96524943 3.59148586 33.61423458 10 33 C12.9254644 31.6490712 12.9254644 31.6490712 15 30 C15.66 30 16.32 30 17 30 C18.20628008 27.66785852 19.1654738 25.50357861 20 23 C20.99 23 21.98 23 23 23 C23.49644625 28.95735496 22.42970816 33.05600549 19 38 C14.59837981 42.72496196 10.27394779 45.66360871 3.73046875 46.3359375 C-4.54371997 46.4271634 -10.58428015 46.17810264 -16.7421875 40.3515625 C-22.67397269 33.85214236 -23.46296445 28.13938134 -23.30859375 19.44921875 C-22.72339005 12.9082711 -20.35547257 8.99937235 -15.5625 4.625 C-10.40362185 0.59428416 -6.58631274 -0.25828677 0 0 Z " fill="#000000" transform="translate(25,2)"/>
</svg>
