<?xml version="1.0" encoding="UTF-8"?>
<svg version="1.1" xmlns="http://www.w3.org/2000/svg" width="35" height="35">
<path d="M0 0 C8.25 0 16.5 0 25 0 C18.25 9 18.25 9 15.125 11.5 C14.23167969 12.22703125 14.23167969 12.22703125 13.3203125 12.96875 C12.66675781 13.47921875 12.66675781 13.47921875 12 14 C10.74351577 12.79841071 9.49514546 11.58833517 8.25 10.375 C7.20585937 9.36566406 7.20585937 9.36566406 6.140625 8.3359375 C4 6 4 6 0 0 Z " fill="#2096F3" transform="translate(5,19)"/>
<path d="M0 0 C1.05130638 0.82113871 2.09036153 1.65795657 3.125 2.5 C3.70507812 2.9640625 4.28515625 3.428125 4.8828125 3.90625 C7.95273886 6.94219194 10.40945935 10.54594579 13 14 C4.75 14 -3.5 14 -12 14 C-8.03452577 8.71270103 -4.67560604 4.45295813 0 0 Z " fill="#2096F3" transform="translate(17,2)"/>
</svg>
