<?xml version="1.0" encoding="UTF-8"?>
<svg version="1.1" xmlns="http://www.w3.org/2000/svg" width="30" height="30">
<path d="M0 0 C9.24 0 18.48 0 28 0 C26.93372954 5.33135229 26.89568247 5.41149869 23 8.375 C18.91257189 12.155871 18.21233224 15.60701399 18 21 C17.94262376 23.34084033 17.95120257 25.65772343 18 28 C14.62537285 27.45276317 12.91765 26.9451 10 25 C9.76953125 22.4609375 9.76953125 22.4609375 9.8125 19.375 C9.55033265 14.28407595 8.74581279 12.04218044 5 8.5625 C4.278125 7.98628906 3.55625 7.41007813 2.8125 6.81640625 C1 5 1 5 0 0 Z M3 2 C7.37372561 7.11693401 7.37372561 7.11693401 12 12 C15.24520887 11.91611738 16.71248744 11.23281995 19.23828125 9.1875 C19.92277344 8.465625 20.60726563 7.74375 21.3125 7 C22.00988281 6.278125 22.70726563 5.55625 23.42578125 4.8125 C25.10928925 3.27428351 25.10928925 3.27428351 25 2 C17.74 2 10.48 2 3 2 Z M12 14 C12 16.97 12 19.94 12 23 C13.98 23.99 13.98 23.99 16 25 C16 21.37 16 17.74 16 14 C14.68 14 13.36 14 12 14 Z " fill="#C1C1C1" transform="translate(1,1)"/>
</svg>
